<svg width="743" height="160" viewBox="0 0 743 160" fill="none" xmlns="http://www.w3.org/2000/svg">
<path d="M12.6952 158H65.9373C68.3776 158 69.4868 156.447 68.5994 154.229C63.7189 139.143 61.0568 124.058 61.0568 109.195C72.5926 104.758 78.3605 75.6966 78.1387 6.25998C78.1387 4.04156 76.8076 2.7105 74.811 2.7105H46.4152C44.1968 2.7105 43.0876 4.04156 43.3094 6.48182C45.9715 54.8434 43.7531 59.0584 39.3163 59.0584C34.8794 59.0584 33.5484 54.8434 35.3231 6.48182C35.545 4.04156 34.2139 2.7105 32.2173 2.7105H3.82154C1.82496 2.7105 0.493904 4.04156 0.493904 6.25998C0.0502193 75.6966 6.2618 104.758 17.5757 109.195C17.5757 124.058 14.9136 139.143 10.0331 154.229C9.14575 156.447 10.255 158 12.6952 158ZM87.9257 158H118.318C120.536 158 121.646 156.669 121.424 154.229C119.205 118.512 120.093 108.973 125.861 108.973C131.407 108.973 132.294 117.847 130.076 154.229C129.854 156.669 130.963 158 133.182 158H162.465C164.683 158 165.792 156.891 165.57 154.672C163.352 105.202 163.352 55.2871 165.57 6.03813C165.792 3.81971 164.683 2.7105 162.465 2.7105L89.9223 2.93234C87.9257 2.93234 86.5947 4.04156 86.5947 6.25998C86.5947 18.6831 86.3728 31.3281 86.3728 43.9731C86.3728 46.1916 87.2602 47.3008 88.3694 47.3008C89.7004 47.3008 90.5878 46.6352 91.697 45.0824C98.5741 36.4305 108.113 33.7684 108.113 35.0995C108.113 39.7581 99.0178 43.0858 93.0281 63.2734C88.8131 77.4713 87.2602 93.0003 84.8199 154.451C84.5981 156.669 85.9291 158 87.9257 158ZM125.639 78.8024C121.202 78.8024 118.984 75.6966 118.984 69.7068C118.984 61.9424 122.089 56.6181 126.748 56.6181C130.519 56.6181 132.294 60.1676 132.294 67.0447C132.294 75.4747 130.298 78.8024 125.639 78.8024ZM227.634 159.775H237.617C260.911 159.775 266.013 149.792 266.013 135.816V95.8842C266.013 83.0174 261.798 76.3621 248.487 71.0379L236.952 66.3792C232.293 64.6045 230.296 61.055 230.296 57.9492C230.296 54.6216 232.515 51.7376 236.286 51.7376C240.501 51.7376 242.498 55.2871 242.054 60.3895C241.832 62.6079 242.72 63.9389 244.938 63.9389H255.365C264.238 63.9389 266.013 61.9424 266.013 26.6695C265.347 8.4784 263.795 0.935769 235.842 0.935769H228.078C201.235 0.935769 197.907 7.14735 197.907 24.8947V52.1813C197.907 69.0413 202.122 74.1437 212.771 78.3587L225.194 83.0174C228.965 84.5702 230.962 87.676 230.962 90.56C230.962 93.6658 228.743 96.5497 224.528 96.5497C220.313 96.5497 217.43 93.6658 218.095 88.1197C218.317 85.6795 217.43 84.3484 215.211 84.3484H205.672C199.46 84.3484 198.129 85.2358 198.129 102.318V135.816C198.129 152.898 199.682 159.775 227.634 159.775ZM279.252 158H337.819C340.037 158 341.146 156.669 341.146 154.451C339.372 132.71 338.928 110.969 340.925 89.0071C341.146 86.5668 339.815 85.4576 337.153 86.5668C321.624 92.1129 310.754 88.3416 310.754 82.5737C310.754 77.915 319.184 74.5874 334.269 78.1368C336.71 78.8024 337.819 77.915 337.597 75.4747C337.597 72.1471 337.597 67.4884 337.819 63.4952C337.819 61.2768 336.488 60.1676 334.047 60.6113C316.966 64.1608 312.085 60.6113 312.085 56.3963C312.085 53.0687 317.409 49.2974 336.044 53.0687C338.706 53.5124 340.037 52.4031 339.815 49.9629C338.262 35.3213 338.262 20.6797 339.815 6.25998C340.037 4.04156 338.928 2.7105 336.71 2.7105H279.252C277.256 2.7105 275.925 3.81971 276.147 6.03813C278.143 55.5089 278.143 105.202 276.147 154.672C275.925 156.891 277.256 158 279.252 158ZM374.111 158H404.503C406.722 158 407.831 156.669 407.609 154.229C405.39 118.512 406.278 108.973 412.046 108.973C417.592 108.973 418.479 117.847 416.261 154.229C416.039 156.669 417.148 158 419.367 158H448.65C450.868 158 451.977 156.891 451.755 154.672C449.537 105.202 449.537 55.2871 451.755 6.03813C451.977 3.81971 450.868 2.7105 448.65 2.7105L376.107 2.93234C374.111 2.93234 372.78 4.04156 372.78 6.25998C372.78 18.6831 372.558 31.3281 372.558 43.9731C372.558 46.1916 373.445 47.3008 374.554 47.3008C375.885 47.3008 376.773 46.6352 377.882 45.0824C384.759 36.4305 394.298 33.7684 394.298 35.0995C394.298 39.7581 385.203 43.0858 379.213 63.2734C374.998 77.4713 373.445 93.0003 371.005 154.451C370.783 156.669 372.114 158 374.111 158ZM411.824 78.8024C407.387 78.8024 405.169 75.6966 405.169 69.7068C405.169 61.9424 408.274 56.6181 412.933 56.6181C416.704 56.6181 418.479 60.1676 418.479 67.0447C418.479 75.4747 416.483 78.8024 411.824 78.8024ZM466.432 158H495.715C497.711 158 499.042 156.669 498.821 154.229C497.711 114.741 497.49 110.526 501.926 110.526C508.804 110.526 508.138 120.065 507.251 154.451C507.251 156.669 508.582 158 510.578 158H539.861C542.08 158 543.189 156.891 542.967 154.672C542.302 142.693 541.636 132.266 541.636 112.744C541.636 89.8945 535.425 82.5737 527.882 79.9116V79.6897C540.527 75.4747 543.189 61.2768 543.189 39.0926C543.189 15.5773 540.971 2.48866 519.008 2.48866C510.135 2.48866 495.493 2.93234 483.735 2.93234C474.862 2.93234 469.981 2.7105 466.432 2.7105C464.213 2.7105 463.104 3.81971 463.326 6.03813C465.544 55.5089 465.544 105.202 463.326 154.672C463.104 156.891 464.213 158 466.432 158ZM502.37 77.0276C496.824 77.0276 494.827 74.3655 494.827 67.7103C494.827 60.6113 496.824 58.171 502.37 58.171C507.916 58.171 509.913 60.6113 509.913 67.7103C509.913 74.3655 508.36 77.0276 502.37 77.0276ZM555.472 158H590.079C592.298 158 593.407 156.447 592.741 153.785C580.318 105.202 581.427 99.8774 585.199 99.8774C590.523 99.8774 591.632 103.205 597.4 133.597C599.397 143.137 611.154 143.802 613.373 133.597C619.141 103.205 620.25 99.8774 625.574 99.8774C629.345 99.8774 630.454 105.202 618.031 153.785C617.366 156.447 618.475 158 620.693 158H655.301C657.519 158 658.628 156.891 658.407 154.672C656.188 105.202 656.188 55.5089 658.407 6.03813C658.628 3.81971 657.519 2.7105 655.301 2.7105H617.144C615.147 2.7105 614.038 3.81971 613.816 6.25998C610.489 42.1984 609.379 47.5226 605.386 47.5226C601.393 47.5226 600.284 42.1984 596.956 6.25998C596.734 3.81971 595.625 2.7105 593.629 2.7105H555.472C553.253 2.7105 552.144 3.81971 552.366 6.03813C554.584 55.5089 554.584 105.202 552.366 154.672C552.144 156.891 553.253 158 555.472 158ZM702.17 159.775H709.935C740.771 159.775 742.767 152.676 742.767 126.942V33.7684C742.767 8.03471 740.771 0.935769 709.935 0.935769H702.17C671.334 0.935769 669.338 8.03471 669.338 33.7684V126.942C669.338 152.676 671.334 159.775 702.17 159.775ZM706.163 82.13C700.839 82.13 698.843 78.8024 698.843 70.3724C698.843 61.7205 700.839 58.6147 706.163 58.6147C711.488 58.6147 713.484 61.7205 713.484 70.3724C713.484 78.8024 711.488 82.13 706.163 82.13Z" fill="#FFDC25"/>
<path d="M68.5994 154.229L66.6965 154.844L66.7174 154.909L66.7425 154.971L68.5994 154.229ZM61.0568 109.195L60.3389 107.328L59.0568 107.821V109.195H61.0568ZM78.1387 6.25998H76.1386L76.1387 6.26637L78.1387 6.25998ZM43.3094 6.48182L45.3064 6.37189L45.3045 6.33627L45.3012 6.30074L43.3094 6.48182ZM35.3231 6.48182L33.3313 6.30074L33.3264 6.35452L33.3245 6.40847L35.3231 6.48182ZM0.493904 6.25998L2.4939 6.27276V6.25998H0.493904ZM17.5757 109.195H19.5757V107.831L18.3059 107.333L17.5757 109.195ZM10.0331 154.229L11.8901 154.971L11.9152 154.909L11.936 154.844L10.0331 154.229ZM12.6952 160H65.9373V156H12.6952V160ZM65.9373 160C67.5372 160 69.1696 159.484 70.1483 158.102C71.142 156.699 71.0553 154.983 70.4564 153.486L66.7425 154.971C67.0309 155.693 66.8334 155.862 66.8842 155.79C66.9201 155.74 66.7777 156 65.9373 156V160ZM70.5023 153.613C65.6761 138.696 63.0568 123.819 63.0568 109.195H59.0568C59.0568 124.298 61.7618 139.591 66.6965 154.844L70.5023 153.613ZM61.7748 111.061C65.3207 109.698 68.1493 106.545 70.4217 101.88C72.6989 97.2047 74.5348 90.7776 75.9775 82.4434C78.8647 65.7649 80.2496 40.997 80.1386 6.25359L76.1387 6.26637C76.2495 40.9595 74.8614 65.4406 72.0362 81.7611C70.6227 89.9264 68.8675 95.9363 66.8257 100.128C64.7791 104.33 62.5608 106.473 60.3389 107.328L61.7748 111.061ZM80.1387 6.25998C80.1387 4.7509 79.6796 3.32979 78.6703 2.27238C77.6531 1.20676 76.2667 0.710495 74.811 0.710495V4.71049C75.3519 4.71049 75.6293 4.87977 75.7768 5.03428C75.9322 5.19701 76.1387 5.55064 76.1387 6.25998H80.1387ZM74.811 0.710495H46.4152V4.71049H74.811V0.710495ZM46.4152 0.710495C44.9109 0.710495 43.4241 1.17406 42.4053 2.4073C41.4187 3.60166 41.1801 5.14949 41.3176 6.66289L45.3012 6.30074C45.217 5.37389 45.4221 5.03605 45.4892 4.95482C45.5242 4.91246 45.7012 4.71049 46.4152 4.71049V0.710495ZM41.3125 6.59174C42.6449 30.798 42.7425 43.7791 41.9868 50.6883C41.6034 54.1938 41.0276 55.7985 40.5377 56.5119C40.3316 56.812 40.173 56.9052 40.0703 56.9501C39.9386 57.0076 39.7239 57.0584 39.3163 57.0584V61.0584C40.0179 61.0584 40.843 60.9775 41.6715 60.6156C42.529 60.241 43.2508 59.6271 43.835 58.7764C44.9257 57.1882 45.5701 54.7165 45.9631 51.1232C46.7603 43.8344 46.6361 30.5272 45.3064 6.37189L41.3125 6.59174ZM39.3163 57.0584C38.9046 57.0584 38.7219 57.0062 38.6314 56.9647C38.5752 56.939 38.4481 56.8732 38.2658 56.5823C37.8174 55.8666 37.3129 54.2529 36.9816 50.719C36.3307 43.7759 36.4331 30.7723 37.3218 6.55516L33.3245 6.40847C32.4384 30.5529 32.319 43.8376 32.9991 51.0924C33.3333 54.6575 33.8826 57.1201 34.8761 58.706C35.4149 59.5659 36.1058 60.2073 36.9647 60.601C37.7893 60.9789 38.6187 61.0584 39.3163 61.0584V57.0584ZM37.3149 6.66289C37.4607 5.05901 37.1163 3.52443 36.1113 2.36871C35.0989 1.20437 33.664 0.710495 32.2173 0.710495V4.71049C32.7673 4.71049 32.9962 4.88215 33.0929 4.99342C33.1972 5.11329 33.4074 5.46436 33.3313 6.30074L37.3149 6.66289ZM32.2173 0.710495H3.82154V4.71049H32.2173V0.710495ZM3.82154 0.710495C2.36588 0.710495 0.979473 1.20676 -0.037711 2.27238C-1.04705 3.32979 -1.5061 4.7509 -1.5061 6.25998H2.4939C2.4939 5.55064 2.70039 5.19701 2.85572 5.03428C3.0032 4.87977 3.28061 4.71049 3.82154 4.71049V0.710495ZM-1.50606 6.2472C-1.7281 40.9972 -0.287772 65.7676 2.65615 82.4498C4.12725 90.7861 5.99146 97.2103 8.27432 101.882C10.55 106.539 13.36 109.69 16.8456 111.057L18.3059 107.333C16.1346 106.481 13.9254 104.336 11.8682 100.126C9.81818 95.9307 8.03586 89.9179 6.59528 81.7547C3.71584 65.4379 2.27222 40.9593 2.49386 6.27276L-1.50606 6.2472ZM15.5757 109.195C15.5757 123.819 12.9565 138.696 8.13023 153.613L11.936 154.844C16.8708 139.591 19.5757 124.298 19.5757 109.195H15.5757ZM8.17616 153.486C7.57722 154.983 7.4906 156.699 8.48426 158.102C9.46298 159.484 11.0954 160 12.6952 160V156C11.8548 156 11.7125 155.74 11.7484 155.79C11.7992 155.862 11.6016 155.693 11.8901 154.971L8.17616 153.486ZM121.424 154.229L119.428 154.353L119.429 154.381L119.432 154.41L121.424 154.229ZM130.076 154.229L132.068 154.41L132.07 154.38L132.072 154.35L130.076 154.229ZM165.57 154.672L163.572 154.762L163.575 154.817L163.58 154.871L165.57 154.672ZM165.57 6.03812L163.58 5.83912L163.575 5.89351L163.572 5.94813L165.57 6.03812ZM162.465 2.71049V0.710487L162.459 0.710506L162.465 2.71049ZM89.9223 2.93233V4.93235L89.9284 4.93233L89.9223 2.93233ZM91.697 45.0824L90.1314 43.8379L90.0994 43.8781L90.0696 43.9199L91.697 45.0824ZM93.0281 63.2734L94.9454 63.8426L94.9455 63.8423L93.0281 63.2734ZM84.8199 154.451L86.81 154.65L86.816 154.59L86.8183 154.53L84.8199 154.451ZM87.9257 160H118.318V156H87.9257V160ZM118.318 160C119.822 160 121.309 159.536 122.328 158.303C123.315 157.109 123.553 155.561 123.416 154.048L119.432 154.41C119.516 155.337 119.311 155.674 119.244 155.756C119.209 155.798 119.032 156 118.318 156V160ZM123.42 154.105C122.309 136.215 121.991 125.064 122.638 118.4C122.965 115.039 123.517 113.098 124.143 112.04C124.435 111.547 124.706 111.31 124.924 111.184C125.138 111.06 125.424 110.973 125.861 110.973V106.973C124.855 106.973 123.852 107.184 122.922 107.721C121.996 108.256 121.269 109.043 120.701 110.003C119.608 111.849 118.996 114.526 118.657 118.014C117.973 125.049 118.32 136.526 119.428 154.353L123.42 154.105ZM125.861 110.973C126.28 110.973 126.544 111.054 126.735 111.163C126.927 111.272 127.176 111.484 127.45 111.946C128.042 112.948 128.575 114.821 128.889 118.145C129.509 124.729 129.191 135.883 128.079 154.107L132.072 154.35C133.179 136.192 133.526 124.718 132.871 117.77C132.547 114.328 131.957 111.709 130.892 109.91C130.337 108.971 129.624 108.205 128.715 107.687C127.805 107.169 126.828 106.973 125.861 106.973V110.973ZM128.084 154.048C127.946 155.561 128.185 157.109 129.172 158.303C130.19 159.536 131.677 160 133.182 160V156C132.467 156 132.29 155.798 132.255 155.756C132.188 155.674 131.983 155.337 132.068 154.41L128.084 154.048ZM133.182 160H162.465V156H133.182V160ZM162.465 160C163.864 160 165.331 159.652 166.383 158.546C167.453 157.419 167.705 155.917 167.561 154.473L163.58 154.871C163.618 155.252 163.589 155.493 163.554 155.628C163.523 155.751 163.488 155.785 163.483 155.791C163.48 155.793 163.283 156 162.465 156V160ZM167.568 154.583C165.353 105.172 165.353 55.317 167.568 6.12812L163.572 5.94813C161.351 55.2572 161.351 105.232 163.572 154.762L167.568 154.583ZM167.561 6.23714C167.705 4.79309 167.453 3.29168 166.383 2.16491C165.331 1.05825 163.864 0.710495 162.465 0.710495V4.71049C163.283 4.71049 163.48 4.91735 163.483 4.9199C163.488 4.92538 163.523 4.95978 163.554 5.08253C163.589 5.21794 163.618 5.45819 163.58 5.83912L167.561 6.23714ZM162.459 0.710506L89.9162 0.932346L89.9284 4.93233L162.471 4.71049L162.459 0.710506ZM89.9223 0.932335C88.5665 0.932335 87.1841 1.31252 86.1304 2.31598C85.0601 3.33535 84.5947 4.74437 84.5947 6.25998H88.5947C88.5947 5.55716 88.7947 5.30236 88.8891 5.21252C89.0001 5.10677 89.2815 4.93233 89.9223 4.93233V0.932335ZM84.5947 6.25998C84.5947 12.4612 84.5393 18.7194 84.4838 25.0157C84.4284 31.3091 84.3728 37.6404 84.3728 43.9731H88.3728C88.3728 37.6609 88.4282 31.3471 88.4837 25.051C88.5391 18.7578 88.5947 12.4819 88.5947 6.25998H84.5947ZM84.3728 43.9731C84.3728 45.3151 84.6362 46.571 85.2783 47.5588C85.9599 48.6076 87.0546 49.3008 88.3694 49.3008V45.3008C88.4363 45.3008 88.52 45.3205 88.5925 45.3625C88.66 45.4016 88.6645 45.4288 88.632 45.3789C88.5531 45.2575 88.3728 44.8496 88.3728 43.9731H84.3728ZM88.3694 49.3008C89.4169 49.3008 90.3693 49.0242 91.2458 48.4245C92.0596 47.8677 92.7206 47.0903 93.3245 46.2448L90.0696 43.9199C89.5643 44.6273 89.227 44.9591 88.987 45.1233C88.8098 45.2446 88.6529 45.3008 88.3694 45.3008V49.3008ZM93.2627 46.3268C96.4892 42.2676 100.343 39.615 103.36 38.1453C104.877 37.4061 106.117 36.9981 106.902 36.8433C107.325 36.76 107.469 36.7798 107.418 36.7728C107.402 36.7705 107.141 36.7396 106.836 36.5203C106.442 36.2365 106.113 35.726 106.113 35.0995H110.113C110.113 34.3065 109.71 33.6608 109.173 33.274C108.725 32.9517 108.253 32.8499 107.962 32.81C107.363 32.7276 106.708 32.8046 106.128 32.9189C104.91 33.1592 103.335 33.7079 101.608 34.5493C98.1361 36.2409 93.7819 39.2453 90.1314 43.8379L93.2627 46.3268ZM106.113 35.0995C106.113 35.5865 105.888 36.2228 104.989 37.4407C104.553 38.0319 104.021 38.6807 103.374 39.4691C102.737 40.2447 102.009 41.1314 101.23 42.1453C98.0801 46.2493 94.1845 52.3445 91.1107 62.7045L94.9455 63.8423C97.8613 54.0147 101.508 48.3522 104.403 44.5809C105.136 43.6259 105.826 42.7864 106.465 42.0074C107.094 41.2411 107.698 40.5069 108.208 39.8156C109.202 38.4684 110.113 36.9417 110.113 35.0995H106.113ZM91.1108 62.7042C86.809 77.1944 85.2583 93.0076 82.8215 154.371L86.8183 154.53C89.262 92.993 90.8171 77.7483 94.9454 63.8426L91.1108 62.7042ZM82.8298 154.252C82.6749 155.801 83.0489 157.289 84.061 158.403C85.0677 159.51 86.4825 160 87.9257 160V156C87.3723 156 87.1233 155.825 87.0208 155.712C86.9237 155.605 86.7431 155.319 86.81 154.65L82.8298 154.252ZM125.639 76.8024C123.943 76.8024 122.934 76.244 122.265 75.3244C121.513 74.2905 120.984 72.5115 120.984 69.7068H116.984C116.984 72.8919 117.563 75.6607 119.03 77.6771C120.58 79.8078 122.898 80.8024 125.639 80.8024V76.8024ZM120.984 69.7068C120.984 66.058 121.718 63.1694 122.841 61.2676C123.941 59.4037 125.305 58.6181 126.748 58.6181V54.6181C123.532 54.6181 121.014 56.4947 119.397 59.234C117.802 61.9354 116.984 65.5912 116.984 69.7068H120.984ZM126.748 58.6181C127.365 58.6181 127.802 58.7589 128.137 58.971C128.48 59.1875 128.835 59.5536 129.164 60.1805C129.853 61.4959 130.294 63.7113 130.294 67.0447H134.294C134.294 63.501 133.848 60.5031 132.707 58.3245C132.12 57.2044 131.325 56.2533 130.274 55.5894C129.216 54.9211 128.017 54.6181 126.748 54.6181V58.6181ZM130.294 67.0447C130.294 71.1949 129.785 73.6833 128.979 75.0898C128.604 75.7433 128.18 76.1345 127.712 76.3812C127.228 76.6364 126.569 76.8024 125.639 76.8024V80.8024C127.038 80.8024 128.376 80.5524 129.576 79.9202C130.793 79.2795 131.742 78.312 132.448 77.0798C133.805 74.7149 134.294 71.3245 134.294 67.0447H130.294ZM248.487 71.0379L247.738 72.8924L247.745 72.8948L248.487 71.0379ZM236.952 66.3792L237.701 64.5247L237.682 64.5173L237.664 64.5102L236.952 66.3792ZM242.054 60.3895L244.044 60.5885L244.045 60.5756L244.046 60.5627L242.054 60.3895ZM266.013 26.6695H268.013V26.6329L268.012 26.5963L266.013 26.6695ZM212.771 78.3587L212.035 80.2183L212.052 80.225L212.069 80.2313L212.771 78.3587ZM225.194 83.0173L225.955 81.168L225.926 81.1559L225.896 81.1447L225.194 83.0173ZM218.095 88.1197L220.081 88.358L220.084 88.3294L220.087 88.3008L218.095 88.1197ZM227.634 161.775H237.617V157.775H227.634V161.775ZM237.617 161.775C249.484 161.775 257.236 159.242 261.974 154.441C266.718 149.634 268.013 142.982 268.013 135.816H264.013C264.013 142.625 262.757 147.953 259.127 151.631C255.49 155.316 249.044 157.775 237.617 157.775V161.775ZM268.013 135.816V95.8842H264.013V135.816H268.013ZM268.013 95.8842C268.013 89.2514 266.93 83.9052 263.888 79.4965C260.853 75.0988 256.059 71.9125 249.23 69.1809L247.745 72.8948C254.226 75.4874 258.195 78.2909 260.596 81.7686C262.988 85.2353 264.013 89.6501 264.013 95.8842H268.013ZM249.236 69.1834L237.701 64.5247L236.203 68.2337L247.738 72.8924L249.236 69.1834ZM237.664 64.5102C233.713 63.0051 232.296 60.1548 232.296 57.9492H228.296C228.296 61.9552 230.873 66.2039 236.24 68.2482L237.664 64.5102ZM232.296 57.9492C232.296 56.7212 232.705 55.6632 233.362 54.9355C233.996 54.233 234.947 53.7376 236.286 53.7376V49.7376C233.854 49.7376 231.81 50.6842 230.392 52.2556C228.997 53.8018 228.296 55.8496 228.296 57.9492H232.296ZM236.286 53.7376C237.746 53.7376 238.645 54.3057 239.23 55.2239C239.881 56.2476 240.261 57.9184 240.062 60.2162L244.046 60.5627C244.29 57.7581 243.894 55.1031 242.604 53.0764C241.248 50.9443 239.041 49.7376 236.286 49.7376V53.7376ZM240.064 60.1904C239.928 61.546 240.084 63.0354 240.998 64.219C241.966 65.4716 243.431 65.9389 244.938 65.9389V61.9389C244.577 61.9389 244.373 61.8841 244.274 61.8439C244.19 61.8095 244.171 61.7826 244.163 61.7732C244.135 61.7367 243.958 61.4513 244.044 60.5885L240.064 60.1904ZM244.938 65.9389H255.365V61.9389H244.938V65.9389ZM255.365 65.9389C257.56 65.9389 259.799 65.8401 261.698 64.8488C263.74 63.7823 265.051 61.8905 265.923 59.1348C266.778 56.4333 267.287 52.671 267.594 47.4919C267.902 42.2822 268.013 35.4945 268.013 26.6695H264.013C264.013 35.4808 263.902 42.17 263.6 47.2552C263.297 52.371 262.808 55.7215 262.11 57.9282C261.428 60.0808 260.632 60.8927 259.846 61.3029C258.917 61.7882 257.606 61.9389 255.365 61.9389V65.9389ZM268.012 26.5963C267.846 22.0614 267.622 18.0205 266.907 14.5688C266.186 11.0844 264.936 8.04274 262.608 5.60093C257.998 0.765087 249.79 -1.06423 235.842 -1.06423V2.93577C249.847 2.93577 256.392 4.87777 259.713 8.361C261.35 10.0787 262.36 12.3335 262.99 15.3796C263.628 18.4584 263.847 22.182 264.014 26.7426L268.012 26.5963ZM235.842 -1.06423H228.078V2.93577H235.842V-1.06423ZM228.078 -1.06423C221.31 -1.06423 215.911 -0.674591 211.628 0.22646C207.338 1.12877 204.034 2.57103 201.588 4.77388C196.663 9.2095 195.907 16.1053 195.907 24.8947H199.907C199.907 15.9368 200.815 10.8531 204.265 7.74608C206.007 6.17762 208.567 4.95776 212.451 4.1408C216.341 3.32257 221.424 2.93577 228.078 2.93577V-1.06423ZM195.907 24.8947V52.1813H199.907V24.8947H195.907ZM195.907 52.1813C195.907 60.7132 196.96 66.6617 199.639 71.0533C202.359 75.5137 206.559 78.051 212.035 80.2183L213.507 76.4991C208.334 74.4514 205.102 72.3299 203.053 68.9704C200.962 65.5421 199.907 60.5094 199.907 52.1813H195.907ZM212.069 80.2313L224.492 84.89L225.896 81.1447L213.473 76.486L212.069 80.2313ZM224.432 84.8667C227.576 86.1613 228.962 88.6108 228.962 90.56H232.962C232.962 86.7413 230.354 82.9792 225.955 81.168L224.432 84.8667ZM228.962 90.56C228.962 91.6409 228.578 92.6217 227.894 93.3233C227.228 94.006 226.156 94.5497 224.528 94.5497V98.5497C227.116 98.5497 229.26 97.6515 230.758 96.1157C232.237 94.5989 232.962 92.5849 232.962 90.56H228.962ZM224.528 94.5497C222.882 94.5497 221.731 93.9997 221.025 93.1431C220.307 92.271 219.792 90.7659 220.081 88.358L216.109 87.8814C215.733 91.0196 216.327 93.7295 217.938 95.6859C219.562 97.6578 221.96 98.5497 224.528 98.5497V94.5497ZM220.087 88.3008C220.216 86.8774 220.073 85.3437 219.177 84.1302C218.208 82.8197 216.721 82.3484 215.211 82.3484V86.3484C215.573 86.3484 215.77 86.4035 215.861 86.4412C215.934 86.4717 215.95 86.494 215.96 86.5078C216.006 86.5699 216.196 86.9217 216.103 87.9387L220.087 88.3008ZM215.211 82.3484H205.672V86.3484H215.211V82.3484ZM205.672 82.3484C204.151 82.3484 202.575 82.3884 201.211 82.8667C199.675 83.4052 198.53 84.4432 197.762 86.0757C197.053 87.5823 196.669 89.5826 196.442 92.1257C196.212 94.7038 196.129 98.0356 196.129 102.318H200.129C200.129 98.0588 200.213 94.8739 200.426 92.4813C200.643 90.0538 200.981 88.6294 201.381 87.7789C201.722 87.0544 202.074 86.8029 202.535 86.6413C203.168 86.4193 204.087 86.3484 205.672 86.3484V82.3484ZM196.129 102.318V135.816H200.129V102.318H196.129ZM196.129 135.816C196.129 140.078 196.222 143.886 196.844 147.141C197.475 150.439 198.674 153.32 200.991 155.62C203.291 157.904 206.501 159.425 210.795 160.385C215.08 161.343 220.586 161.775 227.634 161.775V157.775C220.706 157.775 215.536 157.346 211.668 156.482C207.81 155.619 205.391 154.353 203.809 152.782C202.243 151.227 201.307 149.186 200.773 146.39C200.231 143.552 200.129 140.095 200.129 135.816H196.129ZM341.146 154.451H343.146V154.369L343.14 154.288L341.146 154.451ZM340.925 89.0071L342.916 89.1882L340.925 89.0071ZM337.153 86.5668L337.826 88.4503L337.875 88.4329L337.922 88.413L337.153 86.5668ZM334.269 78.1368L334.796 76.2073L334.762 76.1981L334.727 76.19L334.269 78.1368ZM337.597 75.4747H335.597V75.5654L335.605 75.6558L337.597 75.4747ZM337.819 63.4952L339.816 63.6062L339.819 63.5508V63.4952H337.819ZM334.047 60.6113L333.69 58.6436L333.665 58.648L333.641 58.6531L334.047 60.6113ZM336.044 53.0687L335.647 55.0289L335.681 55.0358L335.715 55.0415L336.044 53.0687ZM339.815 49.9629L341.807 49.7818L341.806 49.7669L341.804 49.7519L339.815 49.9629ZM339.815 6.25998L341.804 6.47412L341.805 6.46656L341.805 6.45898L339.815 6.25998ZM276.147 6.03812L278.145 5.95747L278.143 5.89817L278.137 5.83912L276.147 6.03812ZM276.147 154.672L278.137 154.871L278.143 154.812L278.145 154.753L276.147 154.672ZM279.252 160H337.819V156H279.252V160ZM337.819 160C339.336 160 340.767 159.532 341.794 158.403C342.792 157.305 343.146 155.868 343.146 154.451H339.146C339.146 155.252 338.946 155.59 338.835 155.712C338.752 155.802 338.52 156 337.819 156V160ZM343.14 154.288C341.371 132.627 340.933 111.006 342.916 89.1882L338.933 88.826C336.923 110.933 337.372 132.793 339.153 154.613L343.14 154.288ZM342.916 89.1882C343.052 87.7001 342.785 85.8732 341.262 84.8141C339.771 83.7763 337.923 84.0795 336.384 84.7207L337.922 88.413C338.438 88.1982 338.773 88.1413 338.953 88.1362C339.117 88.1316 339.081 88.1695 338.978 88.0977C338.871 88.0228 338.868 87.9534 338.895 88.0404C338.929 88.1473 338.972 88.3939 338.933 88.826L342.916 89.1882ZM336.481 84.6833C328.963 87.3681 322.746 87.7316 318.538 86.855C314.133 85.9374 312.754 83.9605 312.754 82.5737H308.754C308.754 86.9548 312.81 89.7475 317.722 90.7709C322.832 91.8355 329.814 91.3116 337.826 88.4503L336.481 84.6833ZM312.754 82.5737C312.754 81.6998 313.58 80.1314 317.327 79.2206C320.911 78.3496 326.45 78.3516 333.811 80.0837L334.727 76.19C327.003 74.3726 320.785 74.2636 316.382 75.3338C312.143 76.3641 308.754 78.7888 308.754 82.5737H312.754ZM333.743 80.0664C335.115 80.4405 336.843 80.6024 338.181 79.5322C339.55 78.4366 339.716 76.699 339.589 75.2936L335.605 75.6558C335.648 76.1229 335.612 76.3833 335.581 76.4984C335.556 76.5912 335.56 76.5064 335.682 76.4087C335.799 76.3153 335.862 76.3401 335.725 76.3487C335.572 76.3583 335.276 76.3382 334.796 76.2073L333.743 80.0664ZM339.597 75.4747C339.597 72.1356 339.597 67.534 339.816 63.6062L335.822 63.3843C335.596 67.4428 335.597 72.1585 335.597 75.4747H339.597ZM339.819 63.4952C339.819 62.0081 339.363 60.4836 338.081 59.48C336.825 58.4969 335.219 58.3654 333.69 58.6436L334.405 62.579C335.316 62.4135 335.596 62.6148 335.616 62.63C335.63 62.6414 335.67 62.6744 335.715 62.7864C335.764 62.9101 335.819 63.1343 335.819 63.4952H339.819ZM333.641 58.6531C325.192 60.4087 320.093 60.3265 317.216 59.4942C315.811 59.0878 315.055 58.5372 314.651 58.0525C314.264 57.5866 314.085 57.0444 314.085 56.3963H310.085C310.085 57.8557 310.517 59.3378 311.578 60.612C312.623 61.8674 314.155 62.7726 316.105 63.3367C319.938 64.4456 325.821 64.3634 334.454 62.5695L333.641 58.6531ZM314.085 56.3963C314.085 56.0779 314.296 54.8024 317.548 54.0141C320.788 53.2286 326.438 53.1651 335.647 55.0289L336.441 51.1084C327.015 49.2009 320.686 49.1374 316.605 50.1267C312.537 51.113 310.085 53.3871 310.085 56.3963H314.085ZM335.715 55.0415C337.286 55.3033 338.994 55.2054 340.285 54.1392C341.636 53.023 341.949 51.3424 341.807 49.7818L337.824 50.1439C337.862 50.5713 337.821 50.8251 337.782 50.9529C337.764 51.0132 337.747 51.0414 337.742 51.0495C337.74 51.0518 337.739 51.0533 337.738 51.0541C337.738 51.0549 337.738 51.0552 337.738 51.0552C337.738 51.0552 337.738 51.0552 337.738 51.0552C337.738 51.0551 337.738 51.055 337.738 51.055C337.738 51.0549 337.738 51.055 337.737 51.0553C337.737 51.0558 337.734 51.0584 337.726 51.0627C337.719 51.067 337.707 51.0739 337.687 51.0821C337.648 51.0986 337.579 51.1215 337.47 51.1391C337.244 51.1754 336.888 51.1818 336.373 51.0959L335.715 55.0415ZM341.804 49.7519C340.266 35.2495 340.266 20.7504 341.804 6.47412L337.827 6.04583C336.258 20.609 336.259 35.3931 337.826 50.1738L341.804 49.7519ZM341.805 6.45898C341.951 5.00572 341.691 3.50368 340.691 2.34609C339.676 1.17107 338.211 0.710495 336.71 0.710495V4.71049C337.426 4.71049 337.625 4.91545 337.664 4.96057C337.718 5.02311 337.902 5.29581 337.825 6.06097L341.805 6.45898ZM336.71 0.710495H279.252V4.71049H336.71V0.710495ZM279.252 0.710495C277.911 0.710495 276.498 1.08388 275.453 2.12819C274.373 3.20837 274.002 4.6901 274.157 6.23713L278.137 5.83912C278.07 5.16773 278.253 4.98565 278.282 4.95662C278.347 4.89172 278.597 4.71049 279.252 4.71049V0.710495ZM274.148 6.11878C276.143 55.5358 276.143 105.175 274.148 154.592L278.145 154.753C280.144 105.228 280.144 55.482 278.145 5.95747L274.148 6.11878ZM274.157 154.473C274.002 156.02 274.373 157.502 275.453 158.582C276.498 159.627 277.911 160 279.252 160V156C278.597 156 278.347 155.819 278.282 155.754C278.253 155.725 278.07 155.543 278.137 154.871L274.157 154.473ZM407.609 154.229L405.613 154.353L405.615 154.381L405.617 154.41L407.609 154.229ZM416.261 154.229L418.253 154.41L418.255 154.38L418.257 154.35L416.261 154.229ZM451.755 154.672L449.757 154.762L449.76 154.817L449.765 154.871L451.755 154.672ZM451.755 6.03812L449.765 5.83912L449.76 5.89351L449.757 5.94813L451.755 6.03812ZM448.65 2.71049V0.710487L448.644 0.710506L448.65 2.71049ZM376.107 2.93233V4.93235L376.113 4.93233L376.107 2.93233ZM377.882 45.0824L376.316 43.8379L376.284 43.8781L376.255 43.9199L377.882 45.0824ZM379.213 63.2734L381.13 63.8426L381.13 63.8423L379.213 63.2734ZM371.005 154.451L372.995 154.65L373.001 154.59L373.003 154.53L371.005 154.451ZM374.111 160H404.503V156H374.111V160ZM404.503 160C406.007 160 407.494 159.536 408.513 158.303C409.5 157.109 409.738 155.561 409.601 154.048L405.617 154.41C405.701 155.337 405.496 155.674 405.429 155.756C405.394 155.798 405.217 156 404.503 156V160ZM409.605 154.105C408.494 136.215 408.176 125.064 408.823 118.4C409.15 115.039 409.702 113.098 410.328 112.04C410.62 111.547 410.891 111.31 411.109 111.184C411.323 111.06 411.609 110.973 412.046 110.973V106.973C411.04 106.973 410.037 107.184 409.107 107.721C408.181 108.256 407.454 109.043 406.886 110.003C405.793 111.849 405.181 114.526 404.842 118.014C404.158 125.049 404.505 136.526 405.613 154.353L409.605 154.105ZM412.046 110.973C412.465 110.973 412.729 111.054 412.92 111.163C413.112 111.272 413.361 111.484 413.635 111.946C414.227 112.948 414.76 114.821 415.074 118.145C415.694 124.729 415.376 135.883 414.264 154.107L418.257 154.35C419.364 136.192 419.711 124.718 419.056 117.77C418.732 114.328 418.142 111.709 417.077 109.91C416.522 108.971 415.809 108.205 414.9 107.687C413.99 107.169 413.013 106.973 412.046 106.973V110.973ZM414.269 154.048C414.131 155.561 414.37 157.109 415.357 158.303C416.375 159.536 417.862 160 419.367 160V156C418.652 156 418.475 155.798 418.44 155.756C418.373 155.674 418.168 155.337 418.253 154.41L414.269 154.048ZM419.367 160H448.65V156H419.367V160ZM448.65 160C450.049 160 451.516 159.652 452.568 158.546C453.638 157.419 453.89 155.917 453.746 154.473L449.765 154.871C449.803 155.252 449.774 155.493 449.739 155.628C449.708 155.751 449.673 155.785 449.668 155.791C449.665 155.793 449.468 156 448.65 156V160ZM453.753 154.583C451.538 105.172 451.538 55.317 453.753 6.12812L449.757 5.94813C447.536 55.2572 447.536 105.232 449.757 154.762L453.753 154.583ZM453.746 6.23714C453.89 4.79309 453.638 3.29168 452.568 2.16491C451.516 1.05825 450.049 0.710495 448.65 0.710495V4.71049C449.468 4.71049 449.665 4.91735 449.668 4.9199C449.673 4.92538 449.708 4.95978 449.739 5.08253C449.774 5.21794 449.803 5.45819 449.765 5.83912L453.746 6.23714ZM448.644 0.710506L376.101 0.932346L376.113 4.93233L448.656 4.71049L448.644 0.710506ZM376.107 0.932335C374.751 0.932335 373.369 1.31252 372.315 2.31598C371.245 3.33535 370.78 4.74437 370.78 6.25998H374.78C374.78 5.55716 374.98 5.30236 375.074 5.21252C375.185 5.10677 375.467 4.93233 376.107 4.93233V0.932335ZM370.78 6.25998C370.78 12.4612 370.724 18.7194 370.669 25.0157C370.613 31.3091 370.558 37.6404 370.558 43.9731H374.558C374.558 37.6609 374.613 31.3471 374.669 25.051C374.724 18.7578 374.78 12.4819 374.78 6.25998H370.78ZM370.558 43.9731C370.558 45.3151 370.821 46.571 371.463 47.5588C372.145 48.6076 373.24 49.3008 374.554 49.3008V45.3008C374.621 45.3008 374.705 45.3205 374.778 45.3625C374.845 45.4016 374.85 45.4288 374.817 45.3789C374.738 45.2575 374.558 44.8496 374.558 43.9731H370.558ZM374.554 49.3008C375.602 49.3008 376.554 49.0242 377.431 48.4245C378.245 47.8677 378.906 47.0903 379.509 46.2448L376.255 43.9199C375.749 44.6273 375.412 44.9591 375.172 45.1233C374.995 45.2446 374.838 45.3008 374.554 45.3008V49.3008ZM379.448 46.3268C382.674 42.2676 386.528 39.615 389.545 38.1453C391.062 37.4061 392.302 36.9981 393.087 36.8433C393.51 36.76 393.654 36.7798 393.603 36.7728C393.587 36.7705 393.326 36.7396 393.021 36.5203C392.627 36.2365 392.298 35.726 392.298 35.0995H396.298C396.298 34.3065 395.895 33.6608 395.358 33.274C394.91 32.9517 394.438 32.8499 394.147 32.81C393.548 32.7276 392.893 32.8046 392.313 32.9189C391.095 33.1592 389.52 33.7079 387.793 34.5493C384.321 36.2409 379.967 39.2453 376.316 43.8379L379.448 46.3268ZM392.298 35.0995C392.298 35.5865 392.073 36.2228 391.174 37.4407C390.738 38.0319 390.206 38.6807 389.559 39.4691C388.922 40.2447 388.194 41.1314 387.415 42.1453C384.265 46.2493 380.37 52.3445 377.296 62.7045L381.13 63.8423C384.046 54.0147 387.693 48.3522 390.588 44.5809C391.321 43.6259 392.011 42.7864 392.65 42.0074C393.28 41.2411 393.883 40.5069 394.393 39.8156C395.387 38.4684 396.298 36.9417 396.298 35.0995H392.298ZM377.296 62.7042C372.994 77.1944 371.443 93.0076 369.007 154.371L373.003 154.53C375.447 92.993 377.002 77.7483 381.13 63.8426L377.296 62.7042ZM369.015 154.252C368.86 155.801 369.234 157.289 370.246 158.403C371.253 159.51 372.668 160 374.111 160V156C373.557 156 373.308 155.825 373.206 155.712C373.109 155.605 372.928 155.319 372.995 154.65L369.015 154.252ZM411.824 76.8024C410.128 76.8024 409.119 76.244 408.45 75.3244C407.698 74.2905 407.169 72.5115 407.169 69.7068H403.169C403.169 72.8919 403.749 75.6607 405.215 77.6771C406.765 79.8078 409.083 80.8024 411.824 80.8024V76.8024ZM407.169 69.7068C407.169 66.058 407.903 63.1694 409.026 61.2676C410.126 59.4037 411.49 58.6181 412.933 58.6181V54.6181C409.717 54.6181 407.199 56.4947 405.582 59.234C403.987 61.9354 403.169 65.5912 403.169 69.7068H407.169ZM412.933 58.6181C413.55 58.6181 413.987 58.7589 414.322 58.971C414.665 59.1875 415.02 59.5536 415.349 60.1805C416.038 61.4959 416.479 63.7113 416.479 67.0447H420.479C420.479 63.501 420.033 60.5031 418.892 58.3245C418.305 57.2044 417.51 56.2533 416.459 55.5894C415.401 54.9211 414.202 54.6181 412.933 54.6181V58.6181ZM416.479 67.0447C416.479 71.1949 415.97 73.6833 415.164 75.0898C414.789 75.7433 414.365 76.1345 413.897 76.3812C413.413 76.6364 412.754 76.8024 411.824 76.8024V80.8024C413.223 80.8024 414.561 80.5524 415.761 79.9202C416.978 79.2795 417.927 78.312 418.633 77.0798C419.99 74.7149 420.479 71.3245 420.479 67.0447H416.479ZM498.821 154.229L496.821 154.285L496.823 154.347L496.829 154.41L498.821 154.229ZM507.251 154.451L505.251 154.399L505.251 154.425V154.451H507.251ZM542.967 154.672L540.97 154.783L540.973 154.827L540.977 154.871L542.967 154.672ZM527.882 79.9116H525.882V81.3266L527.216 81.7975L527.882 79.9116ZM527.882 79.6897L527.25 77.7924L525.882 78.2482V79.6897H527.882ZM463.326 6.03812L465.324 5.94853L465.321 5.89371L465.316 5.83912L463.326 6.03812ZM463.326 154.672L465.316 154.871L465.321 154.817L465.324 154.762L463.326 154.672ZM466.432 160H495.715V156H466.432V160ZM495.715 160C497.161 160 498.596 159.506 499.609 158.342C500.614 157.186 500.958 155.651 500.812 154.048L496.829 154.41C496.905 155.246 496.695 155.597 496.59 155.717C496.494 155.828 496.265 156 495.715 156V160ZM500.82 154.173C500.263 134.361 499.937 123.565 500.29 117.689C500.471 114.678 500.822 113.361 501.144 112.803C501.208 112.693 501.254 112.645 501.272 112.627C501.288 112.612 501.298 112.606 501.312 112.6C501.355 112.58 501.508 112.526 501.926 112.526V108.526C501.236 108.526 500.425 108.603 499.635 108.968C498.798 109.355 498.155 109.983 497.682 110.8C496.833 112.266 496.477 114.471 496.297 117.449C495.93 123.553 496.269 134.608 496.821 154.285L500.82 154.173ZM501.926 112.526C502.557 112.526 502.966 112.635 503.252 112.782C503.525 112.922 503.804 113.157 504.086 113.61C504.71 114.613 505.22 116.467 505.508 119.767C506.077 126.304 505.697 137.116 505.251 154.399L509.25 154.502C509.691 137.4 510.088 126.249 509.493 119.42C509.198 116.037 508.64 113.357 507.482 111.497C506.874 110.518 506.084 109.74 505.08 109.224C504.09 108.715 503.016 108.526 501.926 108.526V112.526ZM505.251 154.451C505.251 155.96 505.71 157.381 506.719 158.438C507.736 159.504 509.123 160 510.578 160V156C510.037 156 509.76 155.831 509.612 155.676C509.457 155.513 509.251 155.16 509.251 154.451H505.251ZM510.578 160H539.861V156H510.578V160ZM539.861 160C541.261 160 542.728 159.652 543.779 158.546C544.85 157.419 545.102 155.917 544.957 154.473L540.977 154.871C541.015 155.252 540.986 155.493 540.951 155.628C540.919 155.751 540.885 155.785 540.879 155.791C540.877 155.793 540.68 156 539.861 156V160ZM544.964 154.561C544.299 142.586 543.636 132.207 543.636 112.744H539.636C539.636 132.326 540.305 142.8 540.97 154.783L544.964 154.561ZM543.636 112.744C543.636 101.178 542.071 93.2818 539.378 87.8671C536.636 82.3509 532.775 79.5176 528.548 78.0256L527.216 81.7975C530.532 82.9677 533.548 85.1257 535.797 89.648C538.096 94.2717 539.636 101.46 539.636 112.744H543.636ZM529.882 79.9116V79.6897H525.882V79.9116H529.882ZM528.514 81.5871C535.582 79.2313 539.787 74.0425 542.178 66.7528C544.531 59.5777 545.189 50.205 545.189 39.0926H541.189C541.189 50.1645 540.516 58.9828 538.377 65.5064C536.275 71.9155 532.827 75.9332 527.25 77.7924L528.514 81.5871ZM545.189 39.0926C545.189 33.1982 545.051 27.8711 544.485 23.2114C543.919 18.5577 542.913 14.445 541.101 11.0341C539.264 7.57735 536.626 4.89182 532.923 3.10075C529.264 1.3308 524.679 0.488659 519.008 0.488659V4.48866C524.318 4.48866 528.247 5.2826 531.181 6.70163C534.071 8.09954 536.105 10.1559 537.568 12.9107C539.056 15.7114 539.977 19.28 540.514 23.6941C541.05 28.1022 541.189 33.2293 541.189 39.0926H545.189ZM519.008 0.488659C514.549 0.488659 508.648 0.60006 502.418 0.710812C496.176 0.82177 489.594 0.932335 483.735 0.932335V4.93233C489.635 4.93233 496.252 4.82106 502.489 4.71018C508.737 4.59909 514.594 4.48866 519.008 4.48866V0.488659ZM483.735 0.932335C479.316 0.932335 475.892 0.877113 473.127 0.821815C470.375 0.766785 468.233 0.710495 466.432 0.710495V4.71049C468.18 4.71049 470.253 4.76513 473.047 4.82102C475.828 4.87664 479.281 4.93233 483.735 4.93233V0.932335ZM466.432 0.710495C465.032 0.710495 463.565 1.05825 462.514 2.16491C461.443 3.29168 461.191 4.79309 461.336 6.23713L465.316 5.83912C465.278 5.4582 465.307 5.21794 465.342 5.08253C465.374 4.95978 465.409 4.92538 465.414 4.9199C465.416 4.91735 465.613 4.71049 466.432 4.71049V0.710495ZM461.328 6.12772C463.544 55.5388 463.544 105.172 461.328 154.583L465.324 154.762C467.545 105.231 467.545 55.479 465.324 5.94853L461.328 6.12772ZM461.336 154.473C461.191 155.917 461.443 157.419 462.514 158.546C463.565 159.652 465.032 160 466.432 160V156C465.613 156 465.416 155.793 465.414 155.791C465.409 155.785 465.374 155.751 465.342 155.628C465.307 155.493 465.278 155.252 465.316 154.871L461.336 154.473ZM502.37 75.0276C499.885 75.0276 498.733 74.435 498.084 73.6188C497.335 72.6786 496.827 70.9414 496.827 67.7103H492.827C492.827 71.1344 493.318 74.0558 494.954 76.1105C496.689 78.2892 499.309 79.0276 502.37 79.0276V75.0276ZM496.827 67.7103C496.827 64.2296 497.344 62.4535 498.084 61.5244C498.715 60.7311 499.839 60.171 502.37 60.171V56.171C499.355 56.171 496.708 56.8311 494.954 59.0327C493.31 61.0984 492.827 64.092 492.827 67.7103H496.827ZM502.37 60.171C504.901 60.171 506.025 60.7311 506.657 61.5244C507.397 62.4535 507.913 64.2296 507.913 67.7103H511.913C511.913 64.092 511.431 61.0984 509.786 59.0327C508.033 56.8311 505.385 56.171 502.37 56.171V60.171ZM507.913 67.7103C507.913 71.0195 507.494 72.734 506.795 73.6552C506.221 74.4105 505.128 75.0276 502.37 75.0276V79.0276C505.602 79.0276 508.28 78.3137 509.98 76.0741C511.555 74.0005 511.913 71.0563 511.913 67.7103H507.913ZM592.741 153.785L594.682 153.3L594.679 153.29L592.741 153.785ZM597.4 133.597L595.435 133.97L595.439 133.989L595.442 134.007L597.4 133.597ZM613.373 133.597L615.327 134.022L615.333 133.996L615.338 133.97L613.373 133.597ZM618.031 153.785L616.094 153.29L616.091 153.3L618.031 153.785ZM658.407 154.672L656.409 154.762L656.411 154.817L656.417 154.871L658.407 154.672ZM658.407 6.03812L656.417 5.83912L656.411 5.89371L656.409 5.94853L658.407 6.03812ZM613.816 6.25998L615.808 6.44437L615.808 6.44105L613.816 6.25998ZM596.956 6.25998L594.965 6.44105L594.965 6.44437L596.956 6.25998ZM552.366 6.03812L554.364 5.94853L554.362 5.89371L554.356 5.83912L552.366 6.03812ZM552.366 154.672L554.356 154.871L554.362 154.817L554.364 154.762L552.366 154.672ZM555.472 160H590.079V156H555.472V160ZM590.079 160C591.66 160 593.226 159.423 594.166 157.985C595.058 156.62 595.087 154.923 594.682 153.3L590.801 154.27C591.061 155.309 590.868 155.72 590.818 155.796C590.815 155.801 590.717 156 590.079 156V160ZM594.679 153.29C588.463 128.982 585.672 115.638 584.885 108.396C584.484 104.706 584.649 102.924 584.927 102.129C585.042 101.8 585.118 101.814 585.027 101.874C584.952 101.923 584.95 101.877 585.199 101.877V97.8773C584.504 97.8773 583.643 97.9983 582.834 98.5282C582.009 99.0692 581.476 99.8789 581.151 100.808C580.549 102.53 580.505 105.115 580.909 108.828C581.731 116.395 584.596 130.004 590.804 154.28L594.679 153.29ZM585.199 101.877C586.318 101.877 586.833 102.052 587.259 102.408C587.782 102.845 588.452 103.794 589.251 106.016C590.848 110.461 592.536 118.696 595.435 133.97L599.365 133.224C596.496 118.106 594.746 109.481 593.015 104.664C592.15 102.256 591.184 100.473 589.822 99.3367C588.362 98.1185 586.742 97.8773 585.199 97.8773V101.877ZM595.442 134.007C596.612 139.597 600.773 142.893 605.255 143.001C609.802 143.11 614.041 139.937 615.327 134.022L611.418 133.173C610.486 137.463 607.737 139.059 605.351 139.002C602.901 138.943 600.184 137.137 599.358 133.188L595.442 134.007ZM615.338 133.97C618.236 118.696 619.925 110.461 621.522 106.016C622.32 103.794 622.99 102.845 623.514 102.408C623.94 102.052 624.455 101.877 625.574 101.877V97.8773C624.031 97.8773 622.411 98.1185 620.951 99.3367C619.589 100.473 618.623 102.256 617.757 104.664C616.027 109.481 614.277 118.106 611.408 133.224L615.338 133.97ZM625.574 101.877C625.823 101.877 625.821 101.923 625.746 101.874C625.654 101.814 625.73 101.8 625.846 102.129C626.124 102.924 626.288 104.706 625.887 108.396C625.101 115.638 622.309 128.982 616.094 153.29L619.969 154.28C626.177 130.004 629.042 116.395 629.864 108.828C630.267 105.115 630.224 102.53 629.621 100.808C629.296 99.8789 628.764 99.0692 627.938 98.5282C627.13 97.9983 626.268 97.8773 625.574 97.8773V101.877ZM616.091 153.3C615.685 154.923 615.714 156.62 616.607 157.985C617.547 159.423 619.113 160 620.693 160V156C620.056 156 619.958 155.801 619.955 155.796C619.905 155.72 619.712 155.309 619.972 154.27L616.091 153.3ZM620.693 160H655.301V156H620.693V160ZM655.301 160C656.7 160 658.167 159.652 659.219 158.546C660.289 157.419 660.541 155.917 660.397 154.473L656.417 154.871C656.455 155.252 656.425 155.493 656.39 155.628C656.359 155.751 656.324 155.785 656.319 155.791C656.316 155.793 656.12 156 655.301 156V160ZM660.405 154.583C658.189 105.172 658.189 55.5388 660.405 6.12772L656.409 5.94853C654.188 55.479 654.188 105.231 656.409 154.762L660.405 154.583ZM660.397 6.23713C660.541 4.79309 660.289 3.29168 659.219 2.16491C658.167 1.05825 656.7 0.710495 655.301 0.710495V4.71049C656.12 4.71049 656.316 4.91735 656.319 4.9199C656.324 4.92538 656.359 4.95978 656.39 5.08253C656.425 5.21794 656.455 5.4582 656.417 5.83912L660.397 6.23713ZM655.301 0.710495H617.144V4.71049H655.301V0.710495ZM617.144 0.710495C615.765 0.710495 614.4 1.10593 613.366 2.19083C612.379 3.22786 611.957 4.62466 611.825 6.0789L615.808 6.44105C615.898 5.45502 616.141 5.07708 616.263 4.94944C616.339 4.86967 616.527 4.71049 617.144 4.71049V0.710495ZM611.825 6.07558C610.157 24.0879 609.057 34.2761 607.892 39.967C607.301 42.8509 606.743 44.2994 606.264 45.0085C606.052 45.3215 605.905 45.4136 605.843 45.4456C605.779 45.4785 605.659 45.5226 605.386 45.5226V49.5226C606.112 49.5226 606.9 49.4003 607.674 49.0017C608.45 48.6021 609.071 47.9975 609.577 47.2498C610.532 45.8375 611.208 43.7089 611.81 40.7694C613.03 34.8136 614.148 24.3705 615.808 6.44437L611.825 6.07558ZM605.386 45.5226C605.114 45.5226 604.994 45.4785 604.93 45.4456C604.868 45.4136 604.721 45.3215 604.509 45.0085C604.029 44.2994 603.472 42.8509 602.881 39.967C601.716 34.2761 600.616 24.0879 598.948 6.07558L594.965 6.44437C596.625 24.3705 597.743 34.8136 598.962 40.7694C599.564 43.7089 600.241 45.8375 601.196 47.2498C601.702 47.9975 602.323 48.6021 603.098 49.0017C603.872 49.4003 604.661 49.5226 605.386 49.5226V45.5226ZM598.948 6.07891C598.816 4.62467 598.394 3.22786 597.406 2.19083C596.373 1.10593 595.008 0.710495 593.629 0.710495V4.71049C594.246 4.71049 594.434 4.86967 594.51 4.94944C594.631 5.07708 594.875 5.45502 594.965 6.44105L598.948 6.07891ZM593.629 0.710495H555.472V4.71049H593.629V0.710495ZM555.472 0.710495C554.072 0.710495 552.605 1.05825 551.554 2.16491C550.483 3.29168 550.232 4.79309 550.376 6.23713L554.356 5.83912C554.318 5.4582 554.347 5.21794 554.382 5.08253C554.414 4.95978 554.449 4.92538 554.454 4.9199C554.456 4.91735 554.653 4.71049 555.472 4.71049V0.710495ZM550.368 6.12772C552.584 55.5388 552.584 105.172 550.368 154.583L554.364 154.762C556.585 105.231 556.585 55.479 554.364 5.94853L550.368 6.12772ZM550.376 154.473C550.232 155.917 550.483 157.419 551.554 158.546C552.605 159.652 554.072 160 555.472 160V156C554.653 156 554.456 155.793 554.454 155.791C554.449 155.785 554.414 155.751 554.382 155.628C554.347 155.493 554.318 155.252 554.356 154.871L550.376 154.473ZM702.17 161.775H709.935V157.775H702.17V161.775ZM709.935 161.775C717.691 161.775 723.782 161.331 728.533 160.21C733.312 159.082 736.883 157.233 739.422 154.323C741.946 151.429 743.251 147.71 743.95 143.237C744.646 138.78 744.767 133.367 744.767 126.942H740.767C740.767 133.384 740.64 138.508 739.997 142.62C739.358 146.715 738.237 149.596 736.407 151.694C734.592 153.775 731.882 155.31 727.614 156.317C723.319 157.331 717.596 157.775 709.935 157.775V161.775ZM744.767 126.942V33.7684H740.767V126.942H744.767ZM744.767 33.7684C744.767 27.3435 744.646 21.9303 743.95 17.4733C743.251 13 741.946 9.28103 739.422 6.38731C736.883 3.47705 733.312 1.62851 728.533 0.500546C723.782 -0.620834 717.691 -1.06423 709.935 -1.06423V2.93577C717.596 2.93577 723.319 3.37974 727.614 4.39359C731.882 5.40085 734.592 6.93541 736.407 9.01659C738.237 11.1143 739.358 13.9951 739.997 18.0905C740.64 22.2022 740.767 27.3265 740.767 33.7684H744.767ZM709.935 -1.06423H702.17V2.93577H709.935V-1.06423ZM702.17 -1.06423C694.414 -1.06423 688.323 -0.620834 683.572 0.500546C678.793 1.62851 675.222 3.47705 672.683 6.38731C670.159 9.28103 668.854 13 668.155 17.4733C667.459 21.9303 667.338 27.3435 667.338 33.7684H671.338C671.338 27.3265 671.465 22.2022 672.107 18.0905C672.747 13.9951 673.868 11.1143 675.698 9.01659C677.513 6.93541 680.223 5.40085 684.491 4.39359C688.786 3.37974 694.509 2.93577 702.17 2.93577V-1.06423ZM667.338 33.7684V126.942H671.338V33.7684H667.338ZM667.338 126.942C667.338 133.367 667.459 138.78 668.155 143.237C668.854 147.71 670.159 151.429 672.683 154.323C675.222 157.233 678.793 159.082 683.572 160.21C688.323 161.331 694.414 161.775 702.17 161.775V157.775C694.509 157.775 688.786 157.331 684.491 156.317C680.223 155.31 677.513 153.775 675.698 151.694C673.868 149.596 672.747 146.715 672.107 142.62C671.465 138.508 671.338 133.384 671.338 126.942H667.338ZM706.163 80.13C703.981 80.13 702.909 79.4959 702.208 78.3614C701.356 76.9826 700.843 74.5343 700.843 70.3724H696.843C696.843 74.6405 697.327 78.071 698.805 80.4634C700.433 83.1003 703.021 84.13 706.163 84.13V80.13ZM700.843 70.3724C700.843 66.0875 701.36 63.6532 702.201 62.3114C702.883 61.2239 703.936 60.6147 706.163 60.6147V56.6147C703.067 56.6147 700.459 57.5585 698.812 60.1868C697.324 62.5608 696.843 66.0054 696.843 70.3724H700.843ZM706.163 60.6147C708.391 60.6147 709.444 61.2239 710.126 62.3114C710.967 63.6532 711.484 66.0875 711.484 70.3724H715.484C715.484 66.0054 715.003 62.5608 713.515 60.1868C711.867 57.5585 709.26 56.6147 706.163 56.6147V60.6147ZM711.484 70.3724C711.484 74.5343 710.97 76.9826 710.119 78.3614C709.418 79.4959 708.346 80.13 706.163 80.13V84.13C709.305 84.13 711.893 83.1003 713.522 80.4634C715 78.071 715.484 74.6405 715.484 70.3724H711.484Z" fill="black"/>
</svg>
